<svg width="16" height="16" viewBox="0 0 16 16" fill="none" xmlns="http://www.w3.org/2000/svg">
<path d="M6.09517 13.8548V11.8102C6.09516 11.2921 6.51646 10.8711 7.03831 10.8679H8.95442C9.4786 10.8679 9.90353 11.2898 9.90353 11.8102V13.8488C9.90351 14.2982 10.2687 14.6634 10.7213 14.6667H12.0286C12.6391 14.6682 13.2252 14.4285 13.6575 14.0005C14.0897 13.5724 14.3327 12.9912 14.3327 12.385V6.57724C14.3327 6.0876 14.1141 5.62315 13.7358 5.30901L9.29467 1.78286C8.51836 1.16609 7.4096 1.18602 6.65628 1.83027L2.31069 5.30901C1.91451 5.61389 1.67772 6.07972 1.66602 6.57724V12.3791C1.66602 13.6425 2.6976 14.6667 3.97013 14.6667H5.24754C5.46546 14.6682 5.67501 14.5834 5.82966 14.431C5.98432 14.2785 6.0713 14.0711 6.07129 13.8548H6.09517Z" fill="#F4518D"/>
</svg>
