<svg width="36" height="36" viewBox="0 0 36 36" fill="none" xmlns="http://www.w3.org/2000/svg">
<rect width="36" height="36" rx="8" fill="#F9F5F6"/>
<path d="M9 24.433C9 22.4308 10.4549 20.7254 12.432 20.4098L12.6101 20.3814C14.1934 20.1287 15.8066 20.1287 17.3899 20.3814L17.568 20.4098C19.5451 20.7254 21 22.4308 21 24.433C21 25.2984 20.2984 26 19.433 26H10.567C9.70156 26 9 25.2984 9 24.433Z" stroke="#1F1F1F" stroke-width="1.5"/>
<path d="M18.5 13.5C18.5 15.433 16.933 17 15 17C13.067 17 11.5 15.433 11.5 13.5C11.5 11.567 13.067 10 15 10C16.933 10 18.5 11.567 18.5 13.5Z" stroke="#1F1F1F" stroke-width="1.5"/>
<path d="M21 17C22.933 17 24.5 15.433 24.5 13.5C24.5 11.567 22.933 10 21 10M23.3899 26H25.433C26.2984 26 27 25.2984 27 24.433C27 22.4308 25.5451 20.7254 23.568 20.4098V20.4098C23.4494 20.3909 23.3293 20.3814 23.2093 20.3814C22.8895 20.3814 22.7902 20.3814 22.2412 20.3814" stroke="#F4518D" stroke-width="1.5" stroke-linecap="round"/>
</svg>
